<?xml version="1.0" encoding="UTF-8" standalone="no"?>
<svg width="209px" height="113px" viewBox="0 0 209 113" version="1.1" xmlns="http://www.w3.org/2000/svg" xmlns:xlink="http://www.w3.org/1999/xlink" xmlns:sketch="http://www.bohemiancoding.com/sketch/ns">
    <!-- Generator: Sketch 3.5.2 (25235) - http://www.bohemiancoding.com/sketch -->
    <title>Untitled</title>
    <desc>Created with Sketch.</desc>
    <defs></defs>
    <g id="Page-1" stroke="none" stroke-width="1" fill="none" fill-rule="evenodd" sketch:type="MSPage">
        <g id="RM_logo" sketch:type="MSLayerGroup" transform="translate(0.457031, 0.484375)">
            <g id="Group-3" transform="translate(166.506394, 66.496164)" fill="#95D600" sketch:type="MSShapeGroup">
                <path d="M41.4334936,22.6438056 L18.858844,0.0702199488 L18.858844,12.7938619 L8.12210742,12.7938619 C6.54535038,19.864798 3.81634783,26.5011151 0.139907928,32.4937494 L18.858844,32.4937494 L18.858844,45.2173913 L41.4334936,22.6438056" id="Fill-1"></path>
            </g>
            <path d="M140.581934,98.989913 L140.581934,66.4812685 C140.581934,57.5899335 135.420767,57.5899335 133.724849,57.5899335 C128.971171,57.5899335 126.56135,60.5817289 126.56135,66.4812685 L126.56135,98.989913 L140.581934,98.989913" id="Fill-4" fill="#002E6D" sketch:type="MSShapeGroup"></path>
            <path d="M106.731662,98.989913 L106.731662,66.4812685 C106.731662,57.5899335 101.568368,57.5899335 99.8729821,57.5899335 C95.1203683,57.5899335 92.7110793,60.5817289 92.7110793,66.4812685 L92.7110793,98.989913 L106.731662,98.989913" id="Fill-5" fill="#002E6D" sketch:type="MSShapeGroup"></path>
            <path d="M174.628501,79.2900256 C175.647223,74.7230691 176.188767,69.9757749 176.188767,65.1013402 C176.188767,29.2572481 147.131008,0.199488491 111.286916,0.199488491 C75.4422916,0.199488491 46.384532,29.2572481 46.384532,65.1013402 C46.384532,77.5222916 49.8774425,89.1256061 55.9291253,98.989913 L72.8808593,98.989913 L72.8808593,40.2009207 L92.7110793,40.2009207 L92.7110793,44.4832737 C95.9683274,41.5590384 100.350159,39.1848593 106.583243,39.1848593 C113.311591,39.1848593 118.778107,41.7367161 122.273678,46.4382609 C127.243867,41.5632941 133.010946,39.1848593 139.822281,39.1848593 C152.907662,39.1848593 160.411621,47.2819642 160.411621,61.3993657 L160.411621,79.2900256 L174.628501,79.2900256" id="Fill-6" fill="#002E6D" sketch:type="MSShapeGroup"></path>
            <path d="M20.0307724,42.0372788 L33.3959693,42.0372788 C38.0086752,42.0372788 43.5076419,43.4209309 43.5076419,50.0141586 L43.5076419,50.2173708 C43.5076419,55.1476624 39.8413095,58.0915806 33.7007877,58.0915806 L20.0307724,58.0915806 L20.0307724,42.0372788 L20.0307724,42.0372788 Z M20.0307724,76.2945064 L28.9737084,76.2945064 L44.1731355,98.989913 L67.7872532,98.989913 L49.625289,72.4377289 C58.7549463,68.0963274 63.7421586,60.0119898 63.7421586,49.4034578 L63.7421586,49.2007775 C63.7421586,41.9574834 61.4110691,35.7978107 57.0021074,31.3888491 C51.8595601,26.2468338 44.1529207,23.5295345 34.7168491,23.5295345 L0,23.5295345 L0,98.989913 L20.0307724,98.989913 L20.0307724,76.2945064 L20.0307724,76.2945064 Z" id="Fill-7" fill="#95D600" sketch:type="MSShapeGroup"></path>
            <path d="M53.5858005,79.3070486 L67.045688,98.989913 L74.0043785,98.989913 L74.0043785,79.3070486 L53.5858005,79.3070486" id="Fill-8" fill="#95D600" sketch:type="MSShapeGroup"></path>
            <path d="M92.7110793,98.989913 L92.7110793,66.4812685 C92.7110793,60.5817289 95.1203683,57.5899335 99.8729821,57.5899335 C101.568368,57.5899335 106.731662,57.5899335 106.731662,66.4812685 L106.731662,98.989913 L126.56135,98.989913 L126.56135,66.4812685 C126.56135,60.5817289 128.971171,57.5899335 133.724849,57.5899335 C135.420767,57.5899335 140.581934,57.5899335 140.581934,66.4812685 L140.581934,98.989913 L166.646302,98.989913 C170.322742,92.9972788 173.051744,86.3609616 174.628501,79.2900256 L160.411621,79.2900256 L160.411621,61.3993657 C160.411621,47.2819642 152.907662,39.1848593 139.822281,39.1848593 C133.010946,39.1848593 127.243867,41.5632941 122.273678,46.4382609 C118.778107,41.7367161 113.311591,39.1848593 106.583243,39.1848593 C100.350159,39.1848593 95.9683274,41.5590384 92.7110793,44.4832737 L92.7110793,40.2009207 L72.8808593,40.2009207 L72.8808593,98.989913 L92.7110793,98.989913" id="Fill-9" fill="#FFFFFF" sketch:type="MSShapeGroup"></path>
        </g>
    </g>
</svg>