<svg xmlns="http://www.w3.org/2000/svg" width="209" height="113" viewBox="0 0 209 113"><g fill="none" fill-rule="evenodd"><path fill="#95D600" d="M208.4 89.62l-22.58-22.57v12.72H175.1c-1.6 7.08-4.32 13.7-8 19.7h18.72v12.73l22.58-22.58"/><path fill="#002E6D" d="M141.04 99.47v-32.5c0-8.9-5.16-8.9-6.86-8.9-4.75 0-7.16 3-7.16 8.9v32.5h14.02M107.2 99.47v-32.5c0-8.9-5.17-8.9-6.87-8.9-4.75 0-7.16 3-7.16 8.9v32.5h14.02"/><path fill="#002E6D" d="M54.66 96.48c-4.98-9.18-7.82-19.7-7.82-30.9C46.84 29.75 75.9.7 111.74.7c35.85 0 64.9 29.06 64.9 64.9 0 4.88-.54 9.63-1.55 14.2h-14.23v-17.9c0-14.1-7.5-22.2-20.6-22.2-6.8 0-12.57 2.37-17.54 7.24-3.5-4.7-8.96-7.25-15.7-7.25-6.22 0-10.6 2.37-13.86 5.3V40.7H73.34v55.78H54.66z"/><path fill="#95D600" d="M20.5 42.52h13.35c4.62 0 10.1 1.4 10.1 7.98v.2c0 4.93-3.65 7.88-9.8 7.88H20.5V42.52zm0 34.26h8.93l15.2 22.7h23.6L50.1 72.9C59.2 68.58 64.2 60.5 64.2 49.9v-.2c0-7.26-2.33-13.42-6.74-17.83C52.32 26.73 44.6 24 35.16 24H.47v75.47H20.5v-22.7z"/><path fill="#95D600" d="M54.04 79.8L67.5 99.46h6.96V79.8H54.04"/><path fill="#FFF" d="M93.17 99.47v-32.5c0-5.9 2.4-8.9 7.16-8.9 1.7 0 6.86 0 6.86 8.9v32.5H127v-32.5c0-5.9 2.4-8.9 7.16-8.9 1.7 0 6.86 0 6.86 8.9v32.5h26.06c3.68-6 6.4-12.62 8-19.7h-14.23v-17.9c0-14.1-7.5-22.2-20.6-22.2-6.8 0-12.57 2.38-17.54 7.25-3.5-4.7-8.96-7.25-15.7-7.25-6.22 0-10.6 2.37-13.86 5.3V40.7H73.34v58.77h19.83"/></g></svg>